<?xml version="1.0" encoding="UTF-8"?>
<svg width="1404px" height="1180px" viewBox="0 0 1404 1180" version="1.1" xmlns="http://www.w3.org/2000/svg" xmlns:xlink="http://www.w3.org/1999/xlink">
    <defs></defs>
    <g id="Page-2" stroke="none" stroke-width="1" fill="none" fill-rule="evenodd" opacity="0.512273539">
        <g id="wtx-home-page" transform="translate(-10.000000, -5.000000)">
            <g id="BG-01" transform="translate(11.000000, 5.000000)">
                <g id="Group-21" opacity="0.79" transform="translate(1255.252871, 636.685601)" stroke="#28C3A9" stroke-linecap="round" stroke-linejoin="round">
                    <polygon id="Path-6" points="0.123374721 6.00146484 11.2155483 0.0162760417 22.4046247 5.9469401 11.242341 11.3492839"></polygon>
                    <path d="M3.97414202,8.01513672 L3.97414202,14.6903137 C6.13541899,16.0460768 8.77238653,16.7239583 11.8850446,16.7239583 C14.9977028,16.7239583 17.6209263,15.8221571 19.7547154,14.0185547 L19.7808664,7.36604818" id="Path-8"></path>
                    <path d="M17.7420449,8.34565226 L17.7420449,17.3330485" id="Path-9"></path>
                    <ellipse id="Oval-2" cx="17.7428571" cy="18.6666667" rx="1.31428571" ry="1.33333333"></ellipse>
                </g>
                <g id="Group-21" opacity="0.92" transform="translate(307.769058, 391.921897)" stroke="#28C3A9" stroke-linecap="round" stroke-linejoin="round">
                    <polygon id="Path-6" points="0.144831194 7.20175781 13.1660784 0.01953125 26.3010812 7.13632812 13.1975307 13.6191406"></polygon>
                    <path d="M4.66529715,9.61816406 L4.66529715,17.6283764 C7.20244838,19.2552921 10.298019,20.06875 13.9520089,20.06875 C17.6059989,20.06875 20.6854353,18.9865885 23.1903181,16.8222656 L23.221017,8.83925781" id="Path-8"></path>
                    <path d="M20.827618,10.0147827 L20.827618,20.7996582" id="Path-9"></path>
                    <ellipse id="Oval-2" cx="20.8285714" cy="22.4" rx="1.54285714" ry="1.6"></ellipse>
                </g>
                <g id="Group-7" opacity="0.86" transform="translate(743.069041, 949.522519)" stroke="#29E2C4" stroke-linejoin="round">
                    <rect id="Rectangle-3" x="0" y="0" width="32" height="12"></rect>
                    <polyline id="Path-10" stroke-linecap="round" points="1.68421053 3.45781599 5.04302015 9.43082101 7.58753084 3.42857143"></polyline>
                    <polyline id="Path-10" stroke-linecap="round" points="11.7894737 3.45781599 15.1482833 9.43082101 17.692794 3.42857143"></polyline>
                    <polyline id="Path-10" stroke-linecap="round" points="21.8947368 3.45781599 25.2535465 9.43082101 27.7980572 3.42857143"></polyline>
                    <polyline id="Path-10" stroke-linecap="round" points="4.21052632 3.45781599 7.56933594 9.43082101 10.1138466 3.42857143"></polyline>
                    <polyline id="Path-10" stroke-linecap="round" points="14.3157895 3.45781599 17.6745991 9.43082101 20.2191098 3.42857143"></polyline>
                    <polyline id="Path-10" stroke-linecap="round" points="24.4210526 3.45781599 27.7798623 9.43082101 30.3243729 3.42857143"></polyline>
                    <polygon id="Path-11" points="20.2445518 14.5727365 20.2445518 26.5885359 23.5898437 23.153111 26.9614515 29.1642543 29.494449 27.4162249 26.1254112 21.4365758 30.3464227 20.5794329"></polygon>
                </g>
                <g id="Group-7" opacity="0.97" transform="translate(257.905203, 214.515021)" stroke="#29E2C4" stroke-linejoin="round">
                    <rect id="Rectangle-3" x="0" y="0" width="27" height="10"></rect>
                    <polyline id="Path-10" stroke-linecap="round" points="1.42105263 2.88151332 4.25504825 7.85901751 6.40197915 2.85714286"></polyline>
                    <polyline id="Path-10" stroke-linecap="round" points="9.94736842 2.88151332 12.781364 7.85901751 14.9282949 2.85714286"></polyline>
                    <polyline id="Path-10" stroke-linecap="round" points="18.4736842 2.88151332 21.3076798 7.85901751 23.4546107 2.85714286"></polyline>
                    <polyline id="Path-10" stroke-linecap="round" points="3.55263158 2.88151332 6.3866272 7.85901751 8.53355809 2.85714286"></polyline>
                    <polyline id="Path-10" stroke-linecap="round" points="12.0789474 2.88151332 14.912943 7.85901751 17.0598739 2.85714286"></polyline>
                    <polyline id="Path-10" stroke-linecap="round" points="20.6052632 2.88151332 23.4392588 7.85901751 25.5861897 2.85714286"></polyline>
                    <polygon id="Path-11" points="17.0813406 12.1439471 17.0813406 22.1571132 19.9039307 19.2942592 22.7487247 24.3035453 24.8859414 22.8468541 22.0433157 17.8638131 25.6047942 17.1495274"></polygon>
                </g>
                <g id="Group-8" opacity="0.83" transform="translate(1196.203434, 54.486865)" stroke="#29E2C4">
                    <ellipse id="Oval-3" cx="28.7692308" cy="4.10714286" rx="4.23076923" ry="4.10714286"></ellipse>
                    <polygon id="Star" stroke-linecap="round" stroke-linejoin="round" points="28.7692308 5.33928571 27.2771605 6.10079188 27.5621206 4.48789594 26.3550104 3.34563669 28.0231956 3.11031835 28.7692308 1.64285714 29.5152659 3.11031835 31.1834512 3.34563669 29.976341 4.48789594 30.261301 6.10079188"></polygon>
                    <polyline id="Path-12" points="28.80311 8.23343767 28.80311 22.1933129 0.0432782781 22.1933129 0.0432782781 4.13484945 24.5695562 4.13484945"></polyline>
                    <polyline id="Path-13" points="0.0326397236 4.11406163 14.4018649 13.9636841 25.4221098 6.57152884"></polyline>
                </g>
                <g id="Group-8" opacity="0.74" transform="translate(784.381471, 800.734621)" stroke="#29E2C4">
                    <ellipse id="Oval-3" cx="25.2820513" cy="3.39285714" rx="3.71794872" ry="3.39285714"></ellipse>
                    <polygon id="Star" stroke-linecap="round" stroke-linejoin="round" points="25.2820513 4.41071429 23.970838 5.0397846 24.2212575 3.7073923 23.1604637 2.76378683 24.6264447 2.56939342 25.2820513 1.35714286 25.9376579 2.56939342 27.4036389 2.76378683 26.3428451 3.7073923 26.5932645 5.0397846"></polygon>
                    <polyline id="Path-12" points="25.3118239 6.80153547 25.3118239 18.3336063 0.0380324262 18.3336063 0.0380324262 3.4157452 21.5914282 3.4157452"></polyline>
                    <polyline id="Path-13" points="0.0286833934 3.39857265 12.6561843 11.5352173 22.3406419 5.42865426"></polyline>
                </g>
                <g id="Group-8" opacity="0.9" transform="translate(397.286161, 1077.664607)" stroke="#29E2C4">
                    <ellipse id="Oval-3" cx="33.1282051" cy="4.64285714" rx="4.87179487" ry="4.64285714"></ellipse>
                    <polygon id="Star" stroke-linecap="round" stroke-linejoin="round" points="33.1282051 6.03571429 31.4100636 6.89654734 31.7381995 5.07327367 30.3481938 3.78202409 32.2691344 3.51601204 33.1282051 1.85714286 33.9872759 3.51601204 35.9082165 3.78202409 34.5182108 5.07327367 34.8463466 6.89654734"></polygon>
                    <polyline id="Path-12" points="33.1672175 9.30736433 33.1672175 25.0880929 0.0498355929 25.0880929 0.0498355929 4.67417764 28.2922163 4.67417764"></polyline>
                    <polyline id="Path-13" points="0.0375851362 4.65067836 16.5839656 15.7850342 29.2739446 7.42868478"></polyline>
                </g>
                <g id="Group-10" opacity="0.89" transform="translate(1369.413218, 538.911283)">
                    <path d="M10.4987853,6.37387983 C20.9404846,4.95105857 26.8539278,7.05962575 28.2391149,12.6995814 C29.0253906,15.9009974 27.4042046,18.8305018 23.3755568,21.4880946 L23.3755568,26.2271294 L20.1595773,26.2271294 L20.1595773,22.2478802 C18.402643,22.7743944 17.0687792,23.0376515 16.1579858,23.0376515 C15.2471924,23.0376515 14.1656375,22.8084573 12.9133211,22.3500689 L12.9133211,26.2489267 L9.64818272,26.2489267 L9.64818272,22.255991 C3.22044948,20.2378345 0.0065828649,17.0620261 0.0065828649,12.7285659 C1.89105076,12.7285659 3.51010802,12.725787 4.86375464,12.7202292 C4.89231314,11.5969741 5.43348359,10.2780331 6.48726598,8.76340619 C5.91478599,8.21014763 5.08243021,7.41160314 3.99019865,6.36777272 L10.4987853,6.37387983 Z" id="Path-26" stroke="#29E2C4" stroke-linecap="round" stroke-linejoin="round"></path>
                    <ellipse id="Oval-4" fill="#29E2C4" cx="8.85365854" cy="11.9117647" rx="1.6097561" ry="1.58823529"></ellipse>
                    <path d="M9.71218202,6.37998693 C10.3945074,2.14126766 12.533611,0.0219080308 16.1294928,0.0219080308 C19.7253745,0.0219080308 21.8644781,2.13677619 22.5468035,6.36651252 L22.5468035,6.72954604" id="Path-27" stroke="#29E2C4" stroke-linecap="round" stroke-linejoin="round"></path>
                    <path d="M29.8184621,9.52858779 C28.7139818,9.29543529 28.1617417,8.77196099 28.1617417,7.95816489 C28.1617417,7.23614502 28.3551502,6.35725493 29.7759682,6.35725493 C31.1967863,6.35725493 32.1116326,7.46050846 32.1997889,8.74670859 C32.3778991,11.3453347 31.0318834,12.6671111 28.1617417,12.7120379" id="Path-28" stroke="#29E2C4" stroke-linecap="round" stroke-linejoin="round"></path>
                </g>
                <g id="Group-11" opacity="0.84" transform="translate(632.741123, 1147.976230)" stroke="#29E2C4">
                    <polygon id="Rectangle-11" stroke-linecap="round" stroke-linejoin="round" points="0 0 16.9349553 0 22 4.45646624 22 31 0 31"></polygon>
                    <ellipse id="Oval-7" cx="6.76923077" cy="7.97142857" rx="4.23076923" ry="4.42857143"></ellipse>
                    <polyline id="Path-29" stroke-linecap="round" stroke-linejoin="round" points="6.80786133 3.58232073 6.80786133 7.97308256 9.33826623 11.5334229"></polyline>
                    <rect id="Rectangle-12" x="3.88461538" y="15.5571429" width="11.6923077" height="1" rx="0.5"></rect>
                    <rect id="Rectangle-12" x="3.88461538" y="19.1" width="6.61538462" height="1" rx="0.5"></rect>
                    <rect id="Rectangle-12" x="3.88461538" y="22.6428571" width="10" height="1" rx="0.5"></rect>
                </g>
                <g id="Group-11" opacity="0.7" transform="translate(358.419419, 0.854268)" stroke="#29E2C4">
                    <polygon id="Rectangle-11" stroke-linecap="round" stroke-linejoin="round" points="0 0 18.4744967 0 24 4.74398019 24 33 0 33"></polygon>
                    <ellipse id="Oval-7" cx="7.38461538" cy="8.48571429" rx="4.61538462" ry="4.71428571"></ellipse>
                    <polyline id="Path-29" stroke-linecap="round" stroke-linejoin="round" points="7.42675781 3.8134382 7.42675781 8.48747498 10.1871995 12.2775146"></polyline>
                    <rect id="Rectangle-12" x="4.19230769" y="16.5285714" width="12.8461538" height="1" rx="0.5"></rect>
                    <rect id="Rectangle-12" x="4.19230769" y="20.3" width="7.30769231" height="1" rx="0.5"></rect>
                    <rect id="Rectangle-12" x="4.19230769" y="24.0714286" width="11" height="1" rx="0.5"></rect>
                </g>
                <g id="Group-12" opacity="0.96" transform="translate(1094.326764, 1108.238379)" stroke="#29E2C4">
                    <rect id="Rectangle-16" x="0.5" y="0.5" width="10" height="18" rx="2"></rect>
                    <path d="M0.305555556,15.6290323 L10.6944444,15.6290323" id="Line" stroke-linecap="round"></path>
                    <path d="M0.305555556,2.75806452 L10.6944444,2.75806452" id="Line" stroke-linecap="round"></path>
                    <path d="M4.58333333,1.53225806 L6.41666667,1.53225806" id="Line" stroke-linecap="round"></path>
                    <ellipse id="Oval-8" stroke-linecap="round" cx="5.5" cy="17.1612903" rx="1" ry="1"></ellipse>
                </g>
                <g id="Group-12" opacity="0.76" transform="translate(1075.261176, 499.872656)" stroke="#29E2C4">
                    <rect id="Rectangle-16" x="0.5" y="0.5" width="11" height="21" rx="2"></rect>
                    <path d="M0.333333333,18.0967742 L11.6666667,18.0967742" id="Line" stroke-linecap="round"></path>
                    <path d="M0.333333333,3.19354839 L11.6666667,3.19354839" id="Line" stroke-linecap="round"></path>
                    <path d="M5,1.77419355 L7,1.77419355" id="Line" stroke-linecap="round"></path>
                    <ellipse id="Oval-8" stroke-linecap="round" cx="6" cy="19.8709677" rx="1" ry="1"></ellipse>
                </g>
                <g id="Group-12" opacity="0.82" transform="translate(389.185147, 594.053284)" stroke="#29E2C4">
                    <rect id="Rectangle-16" x="0.5" y="0.5" width="11" height="19" rx="2"></rect>
                    <path d="M0.333333333,16.4516129 L11.6666667,16.4516129" id="Line" stroke-linecap="round"></path>
                    <path d="M0.333333333,2.90322581 L11.6666667,2.90322581" id="Line" stroke-linecap="round"></path>
                    <path d="M5,1.61290323 L7,1.61290323" id="Line" stroke-linecap="round"></path>
                    <ellipse id="Oval-8" stroke-linecap="round" cx="6" cy="18.0645161" rx="1" ry="1"></ellipse>
                </g>
                <g id="Group-12" opacity="0.95" transform="translate(185.610928, 887.880491)" stroke="#29E2C4">
                    <rect id="Rectangle-16" x="0.5" y="0.5" width="10" height="18" rx="2"></rect>
                    <path d="M0.305555556,15.6290323 L10.6944444,15.6290323" id="Line" stroke-linecap="round"></path>
                    <path d="M0.305555556,2.75806452 L10.6944444,2.75806452" id="Line" stroke-linecap="round"></path>
                    <path d="M4.58333333,1.53225806 L6.41666667,1.53225806" id="Line" stroke-linecap="round"></path>
                    <ellipse id="Oval-8" stroke-linecap="round" cx="5.5" cy="17.1612903" rx="1" ry="1"></ellipse>
                </g>
                <g id="Group-12" opacity="0.85" transform="translate(0.069705, 431.156475)" stroke="#29E2C4">
                    <rect id="Rectangle-16" x="0.5" y="0.5" width="14" height="25" rx="2"></rect>
                    <path d="M0.416666667,21.3870968 L14.5833333,21.3870968" id="Line" stroke-linecap="round"></path>
                    <path d="M0.416666667,3.77419355 L14.5833333,3.77419355" id="Line" stroke-linecap="round"></path>
                    <path d="M6.25,2.09677419 L8.75,2.09677419" id="Line" stroke-linecap="round"></path>
                    <ellipse id="Oval-8" stroke-linecap="round" cx="7.5" cy="23.483871" rx="1" ry="1"></ellipse>
                </g>
                <g id="Group-13" opacity="0.87" transform="translate(946.973429, 970.301118)" stroke="#29E2C4">
                    <rect id="Rectangle-18" x="0.5" y="0.5" width="18" height="24" rx="2"></rect>
                    <path d="M0.703703704,10.4166667 L18.3417381,10.4166667" id="Path-30"></path>
                    <path d="M0.703703704,22.2222222 L18.3417381,22.2222222" id="Path-30"></path>
                    <path d="M0.703703704,18.75 L18.3417381,18.75" id="Path-30"></path>
                    <path d="M0.703703704,14.5833333 L18.3417381,14.5833333" id="Path-30"></path>
                    <path d="M12.6666667,10.4166667 L12.6666667,22.2240872" id="Path-31"></path>
                    <path d="M6.33333333,10.4166667 L6.33333333,22.221756" id="Path-31"></path>
                    <rect id="Rectangle-19" x="2.11111111" y="2.08333333" width="14.7777778" height="6.94444444"></rect>
                </g>
                <g id="Group-13" opacity="0.95" transform="translate(939.439236, 468.137960)" stroke="#29E2C4">
                    <rect id="Rectangle-18" x="0.5" y="0.5" width="19" height="26" rx="2"></rect>
                    <path d="M0.740740741,11.25 L19.3070927,11.25" id="Path-30"></path>
                    <path d="M0.740740741,24 L19.3070927,24" id="Path-30"></path>
                    <path d="M0.740740741,20.25 L19.3070927,20.25" id="Path-30"></path>
                    <path d="M0.740740741,15.75 L19.3070927,15.75" id="Path-30"></path>
                    <path d="M13.3333333,11.25 L13.3333333,24.0020142" id="Path-31"></path>
                    <path d="M6.66666667,11.25 L6.66666667,23.9994965" id="Path-31"></path>
                    <rect id="Rectangle-19" x="2.22222222" y="2.25" width="15.5555556" height="7.5"></rect>
                </g>
                <g id="Group-13" opacity="0.87" transform="translate(433.454860, 782.221272)" stroke="#29E2C4">
                    <rect id="Rectangle-18" x="0.5" y="0.5" width="23" height="31" rx="2"></rect>
                    <path d="M0.888888889,13.3333333 L23.1685113,13.3333333" id="Path-30"></path>
                    <path d="M0.888888889,28.4444444 L23.1685113,28.4444444" id="Path-30"></path>
                    <path d="M0.888888889,24 L23.1685113,24" id="Path-30"></path>
                    <path d="M0.888888889,18.6666667 L23.1685113,18.6666667" id="Path-30"></path>
                    <path d="M16,13.3333333 L16,28.4468316" id="Path-31"></path>
                    <path d="M8,13.3333333 L8,28.4438477" id="Path-31"></path>
                    <rect id="Rectangle-19" x="2.66666667" y="2.66666667" width="18.6666667" height="8.88888889"></rect>
                </g>
                <g id="Group-13" opacity="0.75" transform="translate(120.936326, 31.236161)" stroke="#29E2C4">
                    <rect id="Rectangle-18" x="0.5" y="0.5" width="15" height="20" rx="2"></rect>
                    <path d="M0.592592593,8.75 L15.4456742,8.75" id="Path-30"></path>
                    <path d="M0.592592593,18.6666667 L15.4456742,18.6666667" id="Path-30"></path>
                    <path d="M0.592592593,15.75 L15.4456742,15.75" id="Path-30"></path>
                    <path d="M0.592592593,12.25 L15.4456742,12.25" id="Path-30"></path>
                    <path d="M10.6666667,8.75 L10.6666667,18.6682332" id="Path-31"></path>
                    <path d="M5.33333333,8.75 L5.33333333,18.666275" id="Path-31"></path>
                    <rect id="Rectangle-19" x="1.77777778" y="1.75" width="12.4444444" height="5.83333333"></rect>
                </g>
                <g id="Group-15" opacity="0.83" transform="translate(1020.444123, 698.136418)" stroke="#29E2C4" stroke-linecap="round" stroke-linejoin="round">
                    <ellipse id="Oval-9" cx="14.8918919" cy="13.6" rx="7.05405405" ry="7.2"></ellipse>
                    <path d="M19.7074931,19.2001953 L28.2941395,27.9644964" id="Path-32"></path>
                    <path d="M12.583021,15.1829102 C12.583021,16.8270508 13.3661669,17.6491211 14.9324588,17.6491211 C16.5849873,17.6491211 17.2815139,17.0407227 17.2815139,15.1895508 C17.2815139,14.2672852 16.2508842,13.6271484 14.9322833,13.6413086 C13.6136824,13.6554687 12.5850125,13.0644545 12.583021,12.0165039 C12.5810296,10.9685533 12.5677127,9.60517578 14.9246133,9.60517578 C16.4958804,9.60517578 17.2815139,10.4089518 17.2815139,12.0165039" id="Path-33"></path>
                    <path d="M14.906076,9.58913574 L14.8902175,8.01064453" id="Path-34"></path>
                    <path d="M14.8973455,17.6605713 L14.8973455,19.2153809" id="Path-35"></path>
                    <polyline id="Path-36" points="16.4541016 6.42617187 16.4541016 0.000244140625 0.00608023646 0.000244140625 0.00608023646 24.8141878 16.4811944 24.8141878 16.4811944 20.7859656"></polyline>
                    <path d="M3.13513514,4 L13.3166223,4" id="Path-37"></path>
                    <path d="M3.13513514,8 L10.1814872,8" id="Path-37"></path>
                    <path d="M3.13513514,12 L7.83013586,12" id="Path-37"></path>
                    <path d="M3.13513514,16 L7.83013586,16" id="Path-37"></path>
                    <path d="M3.13513514,20 L10.965271,20" id="Path-37"></path>
                </g>
                <g id="Group-16" opacity="0.81" transform="translate(1268.302207, 1134.575306)" stroke="#29E2C4">
                    <path d="M6.55882353,24.5810811 L6.55882353,13.472973 L5,13.472973 C2.51471863,13.472973 0.5,15.4876916 0.5,17.972973 L0.5,20.0810811 C0.5,22.5663625 2.51471863,24.5810811 5,24.5810811 L6.55882353,24.5810811 Z" id="Rectangle-20"></path>
                    <path d="M23.4411765,13.472973 L23.4411765,24.5810811 L25,24.5810811 C27.4852814,24.5810811 29.5,22.5663625 29.5,20.0810811 L29.5,17.972973 C29.5,15.4876916 27.4852814,13.472973 25,13.472973 L23.4411765,13.472973 Z" id="Rectangle-20"></path>
                    <path d="M4.42218556,12.972973 L4.42218556,10 L4.42218556,10 C4.42218556,4.4771525 8.89933806,2.79088747e-15 14.4221856,1.77635684e-15 L15.5882353,0 L15.5882353,1.77635684e-15 C21.1110828,7.61826213e-16 25.5882353,4.4771525 25.5882353,10 L25.5882353,12.972973" id="Path-38" stroke-linecap="round"></path>
                    <path d="M16.7630095,30.2692673 L19.5241516,30.2692673 L19.5241516,30.2692673 C22.3863738,30.2692673 24.7066632,27.9489778 24.7066632,25.0867557 L24.7066632,25.0867557" id="Path-39"></path>
                    <rect id="Rectangle-21" x="12.3529412" y="28.5405405" width="4.41176471" height="3.45945946" rx="1.72972973"></rect>
                </g>
                <g id="Group-16" opacity="0.97" transform="translate(115.453204, 1106.161571)" stroke="#29E2C4">
                    <path d="M6.55882353,24.5810811 L6.55882353,13.472973 L5,13.472973 C2.51471863,13.472973 0.5,15.4876916 0.5,17.972973 L0.5,20.0810811 C0.5,22.5663625 2.51471863,24.5810811 5,24.5810811 L6.55882353,24.5810811 Z" id="Rectangle-20"></path>
                    <path d="M23.4411765,13.472973 L23.4411765,24.5810811 L25,24.5810811 C27.4852814,24.5810811 29.5,22.5663625 29.5,20.0810811 L29.5,17.972973 C29.5,15.4876916 27.4852814,13.472973 25,13.472973 L23.4411765,13.472973 Z" id="Rectangle-20"></path>
                    <path d="M4.42218556,12.972973 L4.42218556,10 L4.42218556,10 C4.42218556,4.4771525 8.89933806,2.79088747e-15 14.4221856,1.77635684e-15 L15.5882353,0 L15.5882353,1.77635684e-15 C21.1110828,7.61826213e-16 25.5882353,4.4771525 25.5882353,10 L25.5882353,12.972973" id="Path-38" stroke-linecap="round"></path>
                    <path d="M16.7630095,30.2692673 L19.5241516,30.2692673 L19.5241516,30.2692673 C22.3863738,30.2692673 24.7066632,27.9489778 24.7066632,25.0867557 L24.7066632,25.0867557" id="Path-39"></path>
                    <rect id="Rectangle-21" x="12.3529412" y="28.5405405" width="4.41176471" height="3.45945946" rx="1.72972973"></rect>
                </g>
                <g id="Group-17" opacity="0.8" transform="translate(566.984603, 271.902220)" stroke="#29E2C4">
                    <ellipse id="Oval-10" cx="1.78378378" cy="18.3333333" rx="1.78378378" ry="1.83333333"></ellipse>
                    <ellipse id="Oval-10" cx="7.13513514" cy="11.6111111" rx="1.78378378" ry="1.83333333"></ellipse>
                    <path d="M8.33644558,2.44817437 C8.34123601,1.63201678 7.94146454,1.22393799 7.13713115,1.22393799 C6.33279776,1.22393799 5.9354457,1.63047508 5.94507496,2.44354926 C5.94463946,3.09123852 6.34309236,3.60880308 7.14043365,3.99624295 C7.93777493,4.38368282 8.33576814,4.88391565 8.33441327,5.49694146 C8.34549418,6.31354664 7.95030749,6.72294334 7.1488532,6.72513156 C6.34739891,6.72731979 5.94667177,6.31782362 5.94667177,5.49664307" id="Path-43" stroke-linecap="round"></path>
                    <path d="M7.15720017,1.22371419 L7.15720017,0.0137039308" id="Path-44" stroke-linecap="round"></path>
                    <path d="M7.15168391,6.74027507 L7.15168391,7.96854236" id="Path-45" stroke-linecap="round"></path>
                    <ellipse id="Oval-10" cx="13.6756757" cy="20.1666667" rx="1.78378378" ry="1.83333333"></ellipse>
                    <ellipse id="Oval-10" cx="20.2162162" cy="6.11111111" rx="1.78378378" ry="1.83333333"></ellipse>
                    <path d="M14.857897,18.9349704 L19.6340332,7.97107612" id="Path-40"></path>
                    <path d="M12.5085515,18.9506361 L8.34842166,12.8310208" id="Path-41"></path>
                    <path d="M5.95211545,12.848626 L3.01194969,17.0965644" id="Path-42"></path>
                </g>
                <g id="Group-17" opacity="0.87" transform="translate(5.655890, 813.271922)" stroke="#29E2C4">
                    <ellipse id="Oval-10" cx="1.94594595" cy="20" rx="1.94594595" ry="2"></ellipse>
                    <ellipse id="Oval-10" cx="7.78378378" cy="12.6666667" rx="1.94594595" ry="2"></ellipse>
                    <path d="M9.09430427,2.67073568 C9.09953019,1.78038194 8.66341586,1.33520508 7.78596125,1.33520508 C6.90850665,1.33520508 6.47503167,1.77870009 6.48553632,2.6656901 C6.48506123,3.3722602 6.91973712,3.93687609 7.78956398,4.35953776 C8.65939084,4.78219944 9.09356524,5.32790799 9.0920872,5.99666341 C9.10417546,6.88750543 8.67306271,7.33412001 7.79874894,7.33650716 C6.92443518,7.33889431 6.48727829,6.89217122 6.48727829,5.99633789" id="Path-43" stroke-linecap="round"></path>
                    <path d="M7.80785473,1.33496094 L7.80785473,0.0149497427" id="Path-44" stroke-linecap="round"></path>
                    <path d="M7.80183699,7.35302734 L7.80183699,8.6929553" id="Path-45" stroke-linecap="round"></path>
                    <ellipse id="Oval-10" cx="14.9189189" cy="22" rx="1.94594595" ry="2"></ellipse>
                    <ellipse id="Oval-10" cx="22.0540541" cy="6.66666667" rx="1.94594595" ry="2"></ellipse>
                    <path d="M16.2086149,20.6563314 L21.4189453,8.6957194" id="Path-40"></path>
                    <path d="M13.6456926,20.6734212 L9.10736909,13.9974772" id="Path-41"></path>
                    <path d="M6.49321685,14.0166829 L3.2857633,18.6507975" id="Path-42"></path>
                </g>
                <g id="Group-18" opacity="0.85" transform="translate(1027.790778, 129.487430)" stroke="#29E2C4">
                    <ellipse id="Oval-11" cx="15" cy="21.6585366" rx="15" ry="15.3414634"></ellipse>
                    <ellipse id="Oval-11" cx="15" cy="21.6585366" rx="13.2352941" ry="13.5365854"></ellipse>
                    <path d="M15.0934915,21.6160144 L8.03010651,14.3918369" id="Path-46" stroke-linecap="round"></path>
                    <path d="M15,6.32156223 L15,3.6097561" id="Path-47"></path>
                    <rect id="Rectangle-22" x="10.2058824" y="0.5" width="9.58823529" height="3.51219512" rx="1"></rect>
                </g>
                <g id="Group-19" opacity="0.77" transform="translate(1129.993245, 833.943950)" stroke="#29E2C4">
                    <path d="M0.997321807,6.34348592 C0.680786995,6.6279725 0.5,7.03352861 0.5,7.45911867 L0.5,25 C0.5,25.8284271 1.17157288,26.5 2,26.5 L11,26.5 C11.8284271,26.5 12.5,25.8284271 12.5,25 L12.5,7.45275307 C12.5,7.02994091 12.3215571,6.62676453 12.0085954,6.34246693 L7.53616569,2.27966553 C6.96641741,1.7621003 6.09738401,1.75979013 5.52489209,2.27431891 L0.997321807,6.34348592 Z" id="Rectangle-23"></path>
                    <path d="M2.91163466,24.8061787 L10.8495578,16.7857408" id="Path-48" stroke-linecap="round"></path>
                    <ellipse id="Oval-12" cx="4.33333333" cy="18.2432432" rx="1.44444444" ry="1.45945946"></ellipse>
                    <ellipse id="Oval-12" cx="6.5" cy="5.83783784" rx="1.44444444" ry="1.45945946"></ellipse>
                    <ellipse id="Oval-12" cx="9.38888889" cy="23.3513514" rx="1.44444444" ry="1.45945946"></ellipse>
                </g>
                <g id="Group-19" opacity="0.89" transform="translate(821.740957, 479.848555)" stroke="#29E2C4">
                    <path d="M0.998791748,6.83023198 C0.681370091,7.1147609 0.5,7.52090577 0.5,7.9471841 L0.5,27 C0.5,27.8284271 1.17157288,28.5 2,28.5 L12,28.5 C12.8284271,28.5 13.5,27.8284271 13.5,27 L13.5,7.94081649 C13.5,7.5173157 13.3209774,7.11354889 13.0071309,6.82920174 L8.03738362,2.32657523 C7.46807428,1.81077691 6.60108732,1.8084728 6.02904447,2.32123786 L0.998791748,6.83023198 Z" id="Rectangle-23"></path>
                    <path d="M3.13560655,26.6436735 L11.6841392,18.029129" id="Path-48" stroke-linecap="round"></path>
                    <ellipse id="Oval-12" cx="4.66666667" cy="19.5945946" rx="1.55555556" ry="1.56756757"></ellipse>
                    <ellipse id="Oval-12" cx="7" cy="6.27027027" rx="1.55555556" ry="1.56756757"></ellipse>
                    <ellipse id="Oval-12" cx="10.1111111" cy="25.0810811" rx="1.55555556" ry="1.56756757"></ellipse>
                </g>
                <g id="Group-19" opacity="0.82" transform="translate(870.274296, 55.292431)" stroke="#29E2C4">
                    <path d="M0.993603579,5.36986778 C0.679313456,5.65423909 0.5,6.05830165 0.5,6.48214753 L0.5,21 C0.5,21.8284271 1.17157288,22.5 2,22.5 L9,22.5 C9.82842712,22.5 10.5,21.8284271 10.5,21 L10.5,6.47578717 C10.5,6.05472004 10.3230219,5.65304135 10.0122996,5.36887729 L6.53449949,2.18833315 C5.96365247,1.6662778 5.08941978,1.66395229 4.51580345,2.18296328 L0.993603579,5.36986778 Z" id="Rectangle-23"></path>
                    <path d="M2.46369086,21.1311893 L9.18039509,14.2989644" id="Path-48" stroke-linecap="round"></path>
                    <ellipse id="Oval-12" cx="3.66666667" cy="15.5405405" rx="1.22222222" ry="1.24324324"></ellipse>
                    <ellipse id="Oval-12" cx="5.5" cy="4.97297297" rx="1.22222222" ry="1.24324324"></ellipse>
                    <ellipse id="Oval-12" cx="7.94444444" cy="19.8918919" rx="1.22222222" ry="1.24324324"></ellipse>
                </g>
                <g id="Group-19" opacity="0.94" transform="translate(650.024260, 925.688748)" stroke="#29E2C4">
                    <path d="M1.01838225,6.10420402 C0.689171466,6.38912469 0.5,6.80302715 0.5,7.2384115 L0.5,24 C0.5,24.8284271 1.17157288,25.5 2,25.5 L11,25.5 C11.8284271,25.5 12.5,24.8284271 12.5,24 L12.5,7.23202095 C12.5,6.79940756 12.3132196,6.38785939 11.987607,6.10302473 L7.51532705,2.1908285 C6.95210819,1.69814406 6.11192092,1.69592064 5.54610234,2.18561725 L1.01838225,6.10420402 Z" id="Rectangle-23"></path>
                    <path d="M2.91163466,23.8874314 L10.8495578,16.1640467" id="Path-48" stroke-linecap="round"></path>
                    <ellipse id="Oval-12" cx="4.33333333" cy="17.5675676" rx="1.44444444" ry="1.40540541"></ellipse>
                    <ellipse id="Oval-12" cx="6.5" cy="5.62162162" rx="1.44444444" ry="1.40540541"></ellipse>
                    <ellipse id="Oval-12" cx="9.38888889" cy="22.4864865" rx="1.44444444" ry="1.40540541"></ellipse>
                </g>
                <g id="Group-20" opacity="0.73" transform="translate(1261.844853, 246.085912)" stroke="#29E2C4">
                    <path d="M25.5,9.47105059 L0.815920795,19.2452087 C0.625238657,19.3207132 0.5,19.5050035 0.5,19.7100903 L0.5,26 C0.5,26.2761424 0.723857625,26.5 1,26.5 L25,26.5 C25.2761424,26.5 25.5,26.2761424 25.5,26 L25.5,9.47105059 Z" id="Rectangle-24"></path>
                    <path d="M20.3073921,26.2291475 L20.3073921,15.9082839" id="Path-49" stroke-linecap="round"></path>
                    <path d="M15.4564934,26.2164001 L15.4564934,19.0684197" id="Path-50" stroke-linecap="round"></path>
                    <path d="M1.65128326,11.9375503 L22.7834244,2.40348547" id="Path-51" stroke-linecap="round" stroke-linejoin="round"></path>
                    <polyline id="Path-52" stroke-linecap="round" stroke-linejoin="round" transform="translate(20.317930, 3.587125) rotate(-345.000000) translate(-20.317930, -3.587125) " points="22.6277806 5.87544527 22.3820691 1.81057231 18.0080798 1.29880472"></polyline>
                </g>
                <g id="Group-20" opacity="0.9" transform="translate(670.400619, 556.851677)" stroke="#29E2C4">
                    <path d="M22.5,8.50177167 L0.815152811,17.1298044 C0.624875801,17.2055124 0.5,17.3895958 0.5,17.5943811 L0.5,23 C0.5,23.2761424 0.723857625,23.5 1,23.5 L22,23.5 C22.2761424,23.5 22.5,23.2761424 22.5,23 L22.5,8.50177167 Z" id="Rectangle-24"></path>
                    <path d="M17.9642315,23.3147978 L17.9642315,14.1406968" id="Path-49" stroke-linecap="round"></path>
                    <path d="M13.6730518,23.3034668 L13.6730518,16.9497064" id="Path-50" stroke-linecap="round"></path>
                    <path d="M1.46075058,10.6111558 L20.1545677,2.13643153" id="Path-51" stroke-linecap="round" stroke-linejoin="round"></path>
                    <polyline id="Path-52" stroke-linecap="round" stroke-linejoin="round" transform="translate(17.973554, 3.188556) rotate(-345.000000) translate(-17.973554, -3.188556) " points="20.0168829 5.22261802 19.7995227 1.60939761 15.9302244 1.15449308"></polyline>
                </g>
                <g id="Group-20" opacity="0.82" transform="translate(227.438166, 1146.599657)" stroke="#29E2C4">
                    <path d="M21.5,8.17875845 L0.814850687,16.424616 C0.624733149,16.5004038 0.5,16.6844057 0.5,16.8890724 L0.5,22 C0.5,22.2761424 0.723857625,22.5 1,22.5 L21,22.5 C21.2761424,22.5 21.5,22.2761424 21.5,22 L21.5,8.17875845 Z" id="Rectangle-24"></path>
                    <path d="M17.1831779,22.3433479 L17.1831779,13.5515011" id="Path-49" stroke-linecap="round"></path>
                    <path d="M13.0785713,22.332489 L13.0785713,16.2434687" id="Path-50" stroke-linecap="round"></path>
                    <path d="M1.39723969,10.1690243 L19.2782822,2.04741355" id="Path-51" stroke-linecap="round" stroke-linejoin="round"></path>
                    <polyline id="Path-52" stroke-linecap="round" stroke-linejoin="round" transform="translate(17.192095, 3.055699) rotate(-345.000000) translate(-17.192095, -3.055699) " points="19.1465836 5.00500893 18.9386739 1.54233938 15.237606 1.1063892"></polyline>
                </g>
            </g>
        </g>
    </g>
</svg>