<?xml version="1.0" encoding="UTF-8"?>
<svg width="40px" height="30px" viewBox="0 0 40 30" version="1.1" xmlns="http://www.w3.org/2000/svg" xmlns:xlink="http://www.w3.org/1999/xlink">
    <defs></defs>
    <g id="Page-2" stroke="none" stroke-width="1" fill="none" fill-rule="evenodd">
        <g id="Mobile---wtx-home-page" transform="translate(-30.000000, -30.000000)" fill="#29E2C4">
            <g id="Section-01-Mobile" transform="translate(30.000000, 30.000000)">
                <g id="Icon-wtx-Mobile">
                    <path d="M21.0740363,25.8350696 C21.6740941,26.721991 21.8681382,26.9520149 22.2297061,27.4228036 C23.7268435,29.3721899 26.2011321,29.9994584 27.56279,29.9994584 C31.8992118,29.9994584 33.5998727,26.6413335 34.3245657,24.401642 C35.0492586,22.1619505 39.6908734,8.54679403 39.6908734,8.54679403 C39.6908734,8.54679403 40.7113027,5.81478681 39.0441914,3.06996431 C37.3770802,0.325141813 34.066972,0 33.8782148,0 L6.3139005,0 C6.3139005,0 2.50754491,0.152423302 0.945805483,2.96027602 C-0.615933946,5.76812875 0.195119553,7.70370591 0.333498092,8.17091419 C0.471876631,8.63812247 4.94750271,21.8912986 5.79839177,24.401642 C6.64928083,26.9119854 8.20148775,29.9440127 12.4925689,29.9994584 C16.7836501,30.054904 19.052917,25.8350696 19.052917,25.8350696 L25.8451915,15.5232201 C25.8451915,15.5232201 26.6887088,14.3874206 26.6887088,12.0218779 C26.6887088,9.65633523 24.323541,5.99472372 20,5.99472372 C15.676459,5.99472372 13.3324383,9.56427449 13.3324383,12.0218779 C13.3324383,14.4794814 14.2835533,15.7116307 14.2835533,15.7116307 L16.1685198,18.6351871 L18.7816973,15 C18.7816973,15 17.7767835,13.5221542 17.7767835,12.4393943 C17.7767835,11.3566344 18.4268602,10.2924959 20,10.2924959 C21.5731398,10.2924959 22.2297061,11.5395005 22.2297061,12.4393943 C22.2297061,13.3392881 21.6732061,14.1457612 21.6732061,14.1457612 C21.6732061,14.1457612 16.4453854,21.3862864 15.8104402,22.3664718 C15.175495,23.3466572 14.1148824,25.2928903 12.4830692,25.2928903 C10.851256,25.2928903 10.1537046,24.2237773 9.36479068,21.9038143 C7.68383616,16.960623 4.56660035,7.26976503 4.56660035,7.26976503 C4.56660035,7.26976503 4.24996919,6.06052623 4.83005702,5.18793682 C5.41014485,4.31534742 6.69053992,4.2863169 6.69053992,4.2863169 L33.3610896,4.2863169 C34.0140854,4.2863169 36.1735832,5.04874725 35.4585098,7.14077538 C34.7434364,9.2328035 31.662736,18.2040708 30.2411123,21.9038143 C29.9905947,22.5557808 29.2043319,25.3018889 27.1499887,25.3018889 C25.6513312,25.3018889 24.9641616,23.931086 23.4968822,21.9038143 C22.5392527,23.3286112 21.816742,24.733793 21.0740363,25.8350696 Z" id="Path-4-Copy-24"></path>
                </g>
            </g>
        </g>
    </g>
</svg>