<?xml version="1.0" encoding="UTF-8"?>
<svg width="87px" height="47px" viewBox="0 0 87 47" version="1.1" xmlns="http://www.w3.org/2000/svg" xmlns:xlink="http://www.w3.org/1999/xlink">
    <!-- Generator: Sketch 45 (43475) - http://www.bohemiancoding.com/sketch -->
    <title>Expat Logo</title>
    <desc>Created with Sketch.</desc>
    <defs></defs>
    <g id="Page-2" stroke="none" stroke-width="1" fill="none" fill-rule="evenodd">
        <g id="Mobile---wtx-home-page" transform="translate(-116.000000, -1743.000000)">
            <g id="Section-02-Mobile" transform="translate(0.000000, 568.000000)">
                <g id="Tool-Expat" transform="translate(20.000000, 1148.000000)">
                    <g id="Expat-Logo" transform="translate(96.000000, 27.000000)">
                        <g id="Group-4">
                            <path d="M2.996,32.182 C4.578,32.182 5.81,31.286 5.81,29.858 C5.81,27.24 2.338,27.8 2.338,26.638 C2.338,26.274 2.646,26.05 3.094,26.05 C3.78,26.05 4.186,26.47 4.41,26.75 L5.684,25.798 C5.334,25.224 4.564,24.496 3.178,24.496 C1.68,24.496 0.518,25.308 0.518,26.666 C0.518,29.27 3.976,28.836 3.976,29.956 C3.976,30.376 3.626,30.614 3.08,30.614 C2.254,30.614 1.764,30.236 1.4,29.816 L0.266,30.824 C0.658,31.454 1.554,32.182 2.996,32.182 Z M7.028,24.678 L6.244,24.678 L6.244,26.246 L7.014,26.246 L7.014,29.13 C7.014,31.118 7.784,32.098 9.534,32.098 C10.066,32.098 10.36,32.028 10.36,32.028 L10.36,30.376 C10.206,30.39 10.136,30.39 10.01,30.39 C9.268,30.39 8.932,30.166 8.932,29.074 L8.932,26.246 L10.304,26.246 L10.304,24.678 L8.932,24.678 L8.932,23.138 L7.028,23.138 L7.028,24.678 Z M11.116,28.36 C11.116,26.148 12.614,24.496 14.7,24.496 C16.968,24.496 18.256,26.008 18.256,28.402 C18.256,28.542 18.256,28.682 18.242,28.822 L13.09,28.822 C13.132,29.802 13.916,30.502 14.994,30.502 C15.988,30.502 16.562,29.914 16.772,29.606 L18.046,30.572 C17.766,31.09 16.786,32.182 14.966,32.182 C12.614,32.182 11.116,30.558 11.116,28.36 Z M13.146,27.562 L16.296,27.562 C16.254,26.666 15.61,26.078 14.728,26.078 C13.818,26.078 13.23,26.722 13.146,27.562 Z M21.812,32.182 C22.764,32.182 23.464,31.65 23.772,31.146 L23.772,32 L25.662,32 L25.662,24.678 L23.73,24.678 L23.73,29.074 C23.73,29.858 23.226,30.446 22.428,30.446 C21.77,30.446 21.21,29.942 21.21,29.13 L21.21,24.678 L19.278,24.678 L19.278,28.906 C19.278,30.46 19.726,32.182 21.812,32.182 Z M26.726,28.36 C26.726,26.148 28.224,24.496 30.31,24.496 C32.578,24.496 33.866,26.008 33.866,28.402 C33.866,28.542 33.866,28.682 33.852,28.822 L28.7,28.822 C28.742,29.802 29.526,30.502 30.604,30.502 C31.598,30.502 32.172,29.914 32.382,29.606 L33.656,30.572 C33.376,31.09 32.396,32.182 30.576,32.182 C28.224,32.182 26.726,30.558 26.726,28.36 Z M28.756,27.562 L31.906,27.562 C31.864,26.666 31.22,26.078 30.338,26.078 C29.428,26.078 28.84,26.722 28.756,27.562 Z M38.85,24.496 C37.884,24.496 37.156,25.014 36.834,25.742 L36.834,24.678 L34.944,24.678 L34.944,32 L36.876,32 L36.876,28.808 C36.876,27.352 37.408,26.456 38.85,26.456 L38.85,24.496 Z M0.364,40.36 C0.364,38.148 1.862,36.496 3.948,36.496 C6.216,36.496 7.504,38.008 7.504,40.402 C7.504,40.542 7.504,40.682 7.49,40.822 L2.338,40.822 C2.38,41.802 3.164,42.502 4.242,42.502 C5.236,42.502 5.81,41.914 6.02,41.606 L7.294,42.572 C7.014,43.09 6.034,44.182 4.214,44.182 C1.862,44.182 0.364,42.558 0.364,40.36 Z M2.394,39.562 L5.544,39.562 C5.502,38.666 4.858,38.078 3.976,38.078 C3.066,38.078 2.478,38.722 2.394,39.562 Z M12.488,36.496 C11.522,36.496 10.794,37.014 10.472,37.742 L10.472,36.678 L8.582,36.678 L8.582,44 L10.514,44 L10.514,40.808 C10.514,39.352 11.046,38.456 12.488,38.456 L12.488,36.496 Z M13.622,44 L15.554,44 L15.554,40.22 L18.004,44 L20.272,44 L17.5,39.996 L20.076,36.678 L17.906,36.678 L15.554,39.758 L15.554,33.878 L13.622,33.878 L13.622,44 Z M21.07,44 L23.002,44 L23.002,33.878 L21.07,33.878 L21.07,44 Z M24.108,41.732 C24.108,40.29 25.242,39.31 26.95,39.31 C27.692,39.31 28.266,39.534 28.532,39.716 L28.532,39.24 C28.532,38.596 28.056,38.162 27.202,38.162 C26.474,38.162 25.802,38.4 25.256,38.68 L24.528,37.364 C25.186,36.916 26.292,36.496 27.412,36.496 C29.764,36.496 30.464,37.728 30.464,39.366 L30.464,44 L28.756,44 L28.63,43.524 C28.252,43.93 27.692,44.182 26.852,44.182 C25.368,44.182 24.108,43.272 24.108,41.732 Z M26.04,41.676 C26.04,42.278 26.586,42.684 27.314,42.684 C28.042,42.684 28.574,42.292 28.574,41.676 C28.574,41.032 28.042,40.654 27.3,40.654 C26.558,40.654 26.04,41.074 26.04,41.676 Z M31.5,40.36 C31.5,38.148 32.998,36.496 35.084,36.496 C37.352,36.496 38.64,38.008 38.64,40.402 C38.64,40.542 38.64,40.682 38.626,40.822 L33.474,40.822 C33.516,41.802 34.3,42.502 35.378,42.502 C36.372,42.502 36.946,41.914 37.156,41.606 L38.43,42.572 C38.15,43.09 37.17,44.182 35.35,44.182 C32.998,44.182 31.5,42.558 31.5,40.36 Z M33.53,39.562 L36.68,39.562 C36.638,38.666 35.994,38.078 35.112,38.078 C34.202,38.078 33.614,38.722 33.53,39.562 Z M43.624,36.496 C42.658,36.496 41.93,37.014 41.608,37.742 L41.608,36.678 L39.718,36.678 L39.718,44 L41.65,44 L41.65,40.808 C41.65,39.352 42.182,38.456 43.624,38.456 L43.624,36.496 Z M47.236,44.182 C48.188,44.182 48.888,43.65 49.196,43.146 L49.196,44 L51.086,44 L51.086,36.678 L49.154,36.678 L49.154,41.074 C49.154,41.858 48.65,42.446 47.852,42.446 C47.194,42.446 46.634,41.942 46.634,41.13 L46.634,36.678 L44.702,36.678 L44.702,40.906 C44.702,42.46 45.15,44.182 47.236,44.182 Z M56.392,36.496 C55.44,36.496 54.74,37.028 54.432,37.532 L54.432,36.678 L52.542,36.678 L52.542,44 L54.474,44 L54.474,39.604 C54.474,38.82 54.978,38.232 55.776,38.232 C56.434,38.232 56.994,38.736 56.994,39.548 L56.994,44 L58.926,44 L58.926,39.772 C58.926,38.218 58.478,36.496 56.392,36.496 Z M60.914,46.016 L61.502,44.532 C61.74,44.658 62.58,45.036 63.588,45.036 C64.638,45.036 65.604,44.714 65.604,43.58 L65.604,43.244 C65.45,43.454 64.736,44.182 63.462,44.182 C61.348,44.182 59.962,42.6 59.962,40.346 C59.962,38.092 61.446,36.496 63.532,36.496 C64.764,36.496 65.506,37.168 65.716,37.448 L65.716,36.678 L67.536,36.678 L67.536,43.076 C67.536,45.806 65.758,46.688 63.602,46.688 C62.594,46.688 61.572,46.38 60.914,46.016 Z M65.66,40.332 C65.66,39.086 64.904,38.204 63.77,38.204 C62.678,38.204 61.908,39.044 61.908,40.332 C61.908,41.62 62.692,42.474 63.784,42.474 C64.904,42.474 65.66,41.634 65.66,40.332 Z M69.104,43.762 C69.104,43.986 69.272,44.182 69.524,44.182 C69.776,44.182 69.944,43.986 69.944,43.762 C69.944,43.538 69.776,43.342 69.524,43.342 C69.272,43.342 69.104,43.538 69.104,43.762 Z M77.812,44 L77.812,42.25 C77.504,43.006 76.524,44.182 74.802,44.182 C72.8,44.182 71.4,42.628 71.4,40.388 C71.4,38.148 72.8,36.594 74.802,36.594 C76.524,36.594 77.504,37.77 77.812,38.526 L77.812,33.878 L78.162,33.878 L78.162,44 L77.812,44 Z M77.826,40.388 C77.826,38.078 76.328,36.944 74.802,36.944 C73.094,36.944 71.764,38.358 71.764,40.388 C71.764,42.418 73.094,43.832 74.802,43.832 C76.328,43.832 77.826,42.698 77.826,40.388 Z M79.87,40.402 C79.87,37.966 81.536,36.594 83.328,36.594 C85.414,36.594 86.73,38.134 86.73,40.136 L86.73,40.388 L80.234,40.388 C80.234,42.586 81.606,43.832 83.524,43.832 C84.924,43.832 85.708,43.118 86.198,42.446 L86.464,42.628 C85.946,43.426 85.022,44.182 83.524,44.182 C81.326,44.182 79.87,42.684 79.87,40.402 Z M80.248,40.052 L86.366,40.052 C86.268,37.98 84.826,36.944 83.328,36.944 C81.844,36.944 80.402,38.064 80.248,40.052 Z" id="steuer-erklaerung.de" fill="#29E2C4"></path>
                            <path d="M0.624,9.76 C0.624,5.968 3.192,3.136 6.768,3.136 C10.656,3.136 12.864,5.728 12.864,9.832 C12.864,10.072 12.864,10.312 12.84,10.552 L4.008,10.552 C4.08,12.232 5.424,13.432 7.272,13.432 C8.976,13.432 9.96,12.424 10.32,11.896 L12.504,13.552 C12.024,14.44 10.344,16.312 7.224,16.312 C3.192,16.312 0.624,13.528 0.624,9.76 Z M4.104,8.392 L9.504,8.392 C9.432,6.856 8.328,5.848 6.816,5.848 C5.256,5.848 4.248,6.952 4.104,8.392 Z M22.089,16 L25.689,16 L21.273,9.592 L25.497,3.448 L21.777,3.448 L19.425,7.264 L17.073,3.448 L13.353,3.448 L17.577,9.592 L13.161,16 L16.737,16 L19.425,12.064 L22.089,16 Z M26.73,20.488 L26.73,3.448 L29.85,3.448 L29.85,4.768 C30.186,4.336 31.434,3.136 33.57,3.136 C37.17,3.136 39.714,5.872 39.714,9.712 C39.714,13.6 37.362,16.312 33.762,16.312 C31.602,16.312 30.354,15.112 30.042,14.704 L30.042,20.488 L26.73,20.488 Z M29.946,9.688 C29.946,12.04 31.338,13.384 33.162,13.384 C35.082,13.384 36.378,11.872 36.378,9.688 C36.378,7.456 35.034,6.064 33.162,6.064 C31.146,6.064 29.946,7.696 29.946,9.688 Z M40.539,12.112 C40.539,9.64 42.483,7.96 45.411,7.96 C46.683,7.96 47.667,8.344 48.123,8.656 L48.123,7.84 C48.123,6.736 47.307,5.992 45.843,5.992 C44.595,5.992 43.443,6.4 42.507,6.88 L41.259,4.624 C42.387,3.856 44.283,3.136 46.203,3.136 C50.235,3.136 51.435,5.248 51.435,8.056 L51.435,16 L48.507,16 L48.291,15.184 C47.643,15.88 46.683,16.312 45.243,16.312 C42.699,16.312 40.539,14.752 40.539,12.112 Z M43.851,12.016 C43.851,13.048 44.787,13.744 46.035,13.744 C47.283,13.744 48.195,13.072 48.195,12.016 C48.195,10.912 47.283,10.264 46.011,10.264 C44.739,10.264 43.851,10.984 43.851,12.016 Z M53.82,3.448 L52.476,3.448 L52.476,6.136 L53.796,6.136 L53.796,11.08 C53.796,14.488 55.116,16.168 58.116,16.168 C59.028,16.168 59.532,16.048 59.532,16.048 L59.532,13.216 C59.268,13.24 59.148,13.24 58.932,13.24 C57.66,13.24 57.084,12.856 57.084,10.984 L57.084,6.136 L59.436,6.136 L59.436,3.448 L57.084,3.448 L57.084,0.808 L53.82,0.808 L53.82,3.448 Z" id="expat" fill="#0B4F6C"></path>
                        </g>
                    </g>
                </g>
            </g>
        </g>
    </g>
</svg>