<?xml version="1.0" encoding="UTF-8"?>
<svg width="149px" height="41px" viewBox="0 0 149 41" version="1.1" xmlns="http://www.w3.org/2000/svg" xmlns:xlink="http://www.w3.org/1999/xlink">
    <!-- Generator: Sketch 45 (43475) - http://www.bohemiancoding.com/sketch -->
    <title>General Logo</title>
    <desc>Created with Sketch.</desc>
    <defs></defs>
    <g id="Page-2" stroke="none" stroke-width="1" fill="none" fill-rule="evenodd">
        <g id="Mobile---wtx-home-page" transform="translate(-85.000000, -1146.000000)" fill="#29E2C4">
            <g id="Section-02-Mobile" transform="translate(0.000000, 568.000000)">
                <g id="Tool-General" transform="translate(20.000000, 548.000000)">
                    <path d="M70.136,46.312 C72.848,46.312 74.96,44.776 74.96,42.328 C74.96,37.84 69.008,38.8 69.008,36.808 C69.008,36.184 69.536,35.8 70.304,35.8 C71.48,35.8 72.176,36.52 72.56,37 L74.744,35.368 C74.144,34.384 72.824,33.136 70.448,33.136 C67.88,33.136 65.888,34.528 65.888,36.856 C65.888,41.32 71.816,40.576 71.816,42.496 C71.816,43.216 71.216,43.624 70.28,43.624 C68.864,43.624 68.024,42.976 67.4,42.256 L65.456,43.984 C66.128,45.064 67.664,46.312 70.136,46.312 Z M77.048,33.448 L75.704,33.448 L75.704,36.136 L77.024,36.136 L77.024,41.08 C77.024,44.488 78.344,46.168 81.344,46.168 C82.256,46.168 82.76,46.048 82.76,46.048 L82.76,43.216 C82.496,43.24 82.376,43.24 82.16,43.24 C80.888,43.24 80.312,42.856 80.312,40.984 L80.312,36.136 L82.664,36.136 L82.664,33.448 L80.312,33.448 L80.312,30.808 L77.048,30.808 L77.048,33.448 Z M84.056,39.76 C84.056,35.968 86.624,33.136 90.2,33.136 C94.088,33.136 96.296,35.728 96.296,39.832 C96.296,40.072 96.296,40.312 96.272,40.552 L87.44,40.552 C87.512,42.232 88.856,43.432 90.704,43.432 C92.408,43.432 93.392,42.424 93.752,41.896 L95.936,43.552 C95.456,44.44 93.776,46.312 90.656,46.312 C86.624,46.312 84.056,43.528 84.056,39.76 Z M87.536,38.392 L92.936,38.392 C92.864,36.856 91.76,35.848 90.248,35.848 C88.688,35.848 87.68,36.952 87.536,38.392 Z M102.392,46.312 C104.024,46.312 105.224,45.4 105.752,44.536 L105.752,46 L108.992,46 L108.992,33.448 L105.68,33.448 L105.68,40.984 C105.68,42.328 104.816,43.336 103.448,43.336 C102.32,43.336 101.36,42.472 101.36,41.08 L101.36,33.448 L98.048,33.448 L98.048,40.696 C98.048,43.36 98.816,46.312 102.392,46.312 Z M110.816,39.76 C110.816,35.968 113.384,33.136 116.96,33.136 C120.848,33.136 123.056,35.728 123.056,39.832 C123.056,40.072 123.056,40.312 123.032,40.552 L114.2,40.552 C114.272,42.232 115.616,43.432 117.464,43.432 C119.168,43.432 120.152,42.424 120.512,41.896 L122.696,43.552 C122.216,44.44 120.536,46.312 117.416,46.312 C113.384,46.312 110.816,43.528 110.816,39.76 Z M114.296,38.392 L119.696,38.392 C119.624,36.856 118.52,35.848 117.008,35.848 C115.448,35.848 114.44,36.952 114.296,38.392 Z M131.6,33.136 C129.944,33.136 128.696,34.024 128.144,35.272 L128.144,33.448 L124.904,33.448 L124.904,46 L128.216,46 L128.216,40.528 C128.216,38.032 129.128,36.496 131.6,36.496 L131.6,33.136 Z M65.624,59.76 C65.624,55.968 68.192,53.136 71.768,53.136 C75.656,53.136 77.864,55.728 77.864,59.832 C77.864,60.072 77.864,60.312 77.84,60.552 L69.008,60.552 C69.08,62.232 70.424,63.432 72.272,63.432 C73.976,63.432 74.96,62.424 75.32,61.896 L77.504,63.552 C77.024,64.44 75.344,66.312 72.224,66.312 C68.192,66.312 65.624,63.528 65.624,59.76 Z M69.104,58.392 L74.504,58.392 C74.432,56.856 73.328,55.848 71.816,55.848 C70.256,55.848 69.248,56.952 69.104,58.392 Z M86.408,53.136 C84.752,53.136 83.504,54.024 82.952,55.272 L82.952,53.448 L79.712,53.448 L79.712,66 L83.024,66 L83.024,60.528 C83.024,58.032 83.936,56.496 86.408,56.496 L86.408,53.136 Z M88.352,66 L91.664,66 L91.664,59.52 L95.864,66 L99.752,66 L95,59.136 L99.416,53.448 L95.696,53.448 L91.664,58.728 L91.664,48.648 L88.352,48.648 L88.352,66 Z M101.12,66 L104.432,66 L104.432,48.648 L101.12,48.648 L101.12,66 Z M106.328,62.112 C106.328,59.64 108.272,57.96 111.2,57.96 C112.472,57.96 113.456,58.344 113.912,58.656 L113.912,57.84 C113.912,56.736 113.096,55.992 111.632,55.992 C110.384,55.992 109.232,56.4 108.296,56.88 L107.048,54.624 C108.176,53.856 110.072,53.136 111.992,53.136 C116.024,53.136 117.224,55.248 117.224,58.056 L117.224,66 L114.296,66 L114.08,65.184 C113.432,65.88 112.472,66.312 111.032,66.312 C108.488,66.312 106.328,64.752 106.328,62.112 Z M109.64,62.016 C109.64,63.048 110.576,63.744 111.824,63.744 C113.072,63.744 113.984,63.072 113.984,62.016 C113.984,60.912 113.072,60.264 111.8,60.264 C110.528,60.264 109.64,60.984 109.64,62.016 Z M119,59.76 C119,55.968 121.568,53.136 125.144,53.136 C129.032,53.136 131.24,55.728 131.24,59.832 C131.24,60.072 131.24,60.312 131.216,60.552 L122.384,60.552 C122.456,62.232 123.8,63.432 125.648,63.432 C127.352,63.432 128.336,62.424 128.696,61.896 L130.88,63.552 C130.4,64.44 128.72,66.312 125.6,66.312 C121.568,66.312 119,63.528 119,59.76 Z M122.48,58.392 L127.88,58.392 C127.808,56.856 126.704,55.848 125.192,55.848 C123.632,55.848 122.624,56.952 122.48,58.392 Z M139.784,53.136 C138.128,53.136 136.88,54.024 136.328,55.272 L136.328,53.448 L133.088,53.448 L133.088,66 L136.4,66 L136.4,60.528 C136.4,58.032 137.312,56.496 139.784,56.496 L139.784,53.136 Z M145.976,66.312 C147.608,66.312 148.808,65.4 149.336,64.536 L149.336,66 L152.576,66 L152.576,53.448 L149.264,53.448 L149.264,60.984 C149.264,62.328 148.4,63.336 147.032,63.336 C145.904,63.336 144.944,62.472 144.944,61.08 L144.944,53.448 L141.632,53.448 L141.632,60.696 C141.632,63.36 142.4,66.312 145.976,66.312 Z M161.672,53.136 C160.04,53.136 158.84,54.048 158.312,54.912 L158.312,53.448 L155.072,53.448 L155.072,66 L158.384,66 L158.384,58.464 C158.384,57.12 159.248,56.112 160.616,56.112 C161.744,56.112 162.704,56.976 162.704,58.368 L162.704,66 L166.016,66 L166.016,58.752 C166.016,56.088 165.248,53.136 161.672,53.136 Z M169.424,69.456 L170.432,66.912 C170.84,67.128 172.28,67.776 174.008,67.776 C175.808,67.776 177.464,67.224 177.464,65.28 L177.464,64.704 C177.2,65.064 175.976,66.312 173.792,66.312 C170.168,66.312 167.792,63.6 167.792,59.736 C167.792,55.872 170.336,53.136 173.912,53.136 C176.024,53.136 177.296,54.288 177.656,54.768 L177.656,53.448 L180.776,53.448 L180.776,64.416 C180.776,69.096 177.728,70.608 174.032,70.608 C172.304,70.608 170.552,70.08 169.424,69.456 Z M177.56,59.712 C177.56,57.576 176.264,56.064 174.32,56.064 C172.448,56.064 171.128,57.504 171.128,59.712 C171.128,61.92 172.472,63.384 174.344,63.384 C176.264,63.384 177.56,61.944 177.56,59.712 Z M183.464,65.592 C183.464,65.976 183.752,66.312 184.184,66.312 C184.616,66.312 184.904,65.976 184.904,65.592 C184.904,65.208 184.616,64.872 184.184,64.872 C183.752,64.872 183.464,65.208 183.464,65.592 Z M198.392,66 L198.392,63 C197.864,64.296 196.184,66.312 193.232,66.312 C189.8,66.312 187.4,63.648 187.4,59.808 C187.4,55.968 189.8,53.304 193.232,53.304 C196.184,53.304 197.864,55.32 198.392,56.616 L198.392,48.648 L198.992,48.648 L198.992,66 L198.392,66 Z M198.416,59.808 C198.416,55.848 195.848,53.904 193.232,53.904 C190.304,53.904 188.024,56.328 188.024,59.808 C188.024,63.288 190.304,65.712 193.232,65.712 C195.848,65.712 198.416,63.768 198.416,59.808 Z M201.92,59.832 C201.92,55.656 204.776,53.304 207.848,53.304 C211.424,53.304 213.68,55.944 213.68,59.376 L213.68,59.808 L202.544,59.808 C202.544,63.576 204.896,65.712 208.184,65.712 C210.584,65.712 211.928,64.488 212.768,63.336 L213.224,63.648 C212.336,65.016 210.752,66.312 208.184,66.312 C204.416,66.312 201.92,63.744 201.92,59.832 Z M202.568,59.232 L213.056,59.232 C212.888,55.68 210.416,53.904 207.848,53.904 C205.304,53.904 202.832,55.824 202.568,59.232 Z" id="General-Logo"></path>
                </g>
            </g>
        </g>
    </g>
</svg>