<?xml version="1.0" encoding="UTF-8"?>
<svg width="90px" height="49px" viewBox="0 0 90 49" version="1.1" xmlns="http://www.w3.org/2000/svg" xmlns:xlink="http://www.w3.org/1999/xlink">
    <!-- Generator: Sketch 45 (43475) - http://www.bohemiancoding.com/sketch -->
    <title>Soldiers Logo</title>
    <desc>Created with Sketch.</desc>
    <defs></defs>
    <g id="Page-2" stroke="none" stroke-width="1" fill="none" fill-rule="evenodd">
        <g id="Mobile---wtx-home-page" transform="translate(-115.000000, -1381.000000)">
            <g id="Section-02-Mobile" transform="translate(0.000000, 568.000000)">
                <g id="Tool-Soldiers" transform="translate(20.000000, 788.000000)">
                    <g id="Soldiers-Logo" transform="translate(95.000000, 27.000000)">
                        <g id="Group-4">
                            <path d="M2.996,32.182 C4.578,32.182 5.81,31.286 5.81,29.858 C5.81,27.24 2.338,27.8 2.338,26.638 C2.338,26.274 2.646,26.05 3.094,26.05 C3.78,26.05 4.186,26.47 4.41,26.75 L5.684,25.798 C5.334,25.224 4.564,24.496 3.178,24.496 C1.68,24.496 0.518,25.308 0.518,26.666 C0.518,29.27 3.976,28.836 3.976,29.956 C3.976,30.376 3.626,30.614 3.08,30.614 C2.254,30.614 1.764,30.236 1.4,29.816 L0.266,30.824 C0.658,31.454 1.554,32.182 2.996,32.182 Z M7.028,24.678 L6.244,24.678 L6.244,26.246 L7.014,26.246 L7.014,29.13 C7.014,31.118 7.784,32.098 9.534,32.098 C10.066,32.098 10.36,32.028 10.36,32.028 L10.36,30.376 C10.206,30.39 10.136,30.39 10.01,30.39 C9.268,30.39 8.932,30.166 8.932,29.074 L8.932,26.246 L10.304,26.246 L10.304,24.678 L8.932,24.678 L8.932,23.138 L7.028,23.138 L7.028,24.678 Z M11.116,28.36 C11.116,26.148 12.614,24.496 14.7,24.496 C16.968,24.496 18.256,26.008 18.256,28.402 C18.256,28.542 18.256,28.682 18.242,28.822 L13.09,28.822 C13.132,29.802 13.916,30.502 14.994,30.502 C15.988,30.502 16.562,29.914 16.772,29.606 L18.046,30.572 C17.766,31.09 16.786,32.182 14.966,32.182 C12.614,32.182 11.116,30.558 11.116,28.36 Z M13.146,27.562 L16.296,27.562 C16.254,26.666 15.61,26.078 14.728,26.078 C13.818,26.078 13.23,26.722 13.146,27.562 Z M21.812,32.182 C22.764,32.182 23.464,31.65 23.772,31.146 L23.772,32 L25.662,32 L25.662,24.678 L23.73,24.678 L23.73,29.074 C23.73,29.858 23.226,30.446 22.428,30.446 C21.77,30.446 21.21,29.942 21.21,29.13 L21.21,24.678 L19.278,24.678 L19.278,28.906 C19.278,30.46 19.726,32.182 21.812,32.182 Z M26.726,28.36 C26.726,26.148 28.224,24.496 30.31,24.496 C32.578,24.496 33.866,26.008 33.866,28.402 C33.866,28.542 33.866,28.682 33.852,28.822 L28.7,28.822 C28.742,29.802 29.526,30.502 30.604,30.502 C31.598,30.502 32.172,29.914 32.382,29.606 L33.656,30.572 C33.376,31.09 32.396,32.182 30.576,32.182 C28.224,32.182 26.726,30.558 26.726,28.36 Z M28.756,27.562 L31.906,27.562 C31.864,26.666 31.22,26.078 30.338,26.078 C29.428,26.078 28.84,26.722 28.756,27.562 Z M38.85,24.496 C37.884,24.496 37.156,25.014 36.834,25.742 L36.834,24.678 L34.944,24.678 L34.944,32 L36.876,32 L36.876,28.808 C36.876,27.352 37.408,26.456 38.85,26.456 L38.85,24.496 Z M0.364,40.36 C0.364,38.148 1.862,36.496 3.948,36.496 C6.216,36.496 7.504,38.008 7.504,40.402 C7.504,40.542 7.504,40.682 7.49,40.822 L2.338,40.822 C2.38,41.802 3.164,42.502 4.242,42.502 C5.236,42.502 5.81,41.914 6.02,41.606 L7.294,42.572 C7.014,43.09 6.034,44.182 4.214,44.182 C1.862,44.182 0.364,42.558 0.364,40.36 Z M2.394,39.562 L5.544,39.562 C5.502,38.666 4.858,38.078 3.976,38.078 C3.066,38.078 2.478,38.722 2.394,39.562 Z M12.488,36.496 C11.522,36.496 10.794,37.014 10.472,37.742 L10.472,36.678 L8.582,36.678 L8.582,44 L10.514,44 L10.514,40.808 C10.514,39.352 11.046,38.456 12.488,38.456 L12.488,36.496 Z M13.622,44 L15.554,44 L15.554,40.22 L18.004,44 L20.272,44 L17.5,39.996 L20.076,36.678 L17.906,36.678 L15.554,39.758 L15.554,33.878 L13.622,33.878 L13.622,44 Z M21.07,44 L23.002,44 L23.002,33.878 L21.07,33.878 L21.07,44 Z M24.108,41.732 C24.108,40.29 25.242,39.31 26.95,39.31 C27.692,39.31 28.266,39.534 28.532,39.716 L28.532,39.24 C28.532,38.596 28.056,38.162 27.202,38.162 C26.474,38.162 25.802,38.4 25.256,38.68 L24.528,37.364 C25.186,36.916 26.292,36.496 27.412,36.496 C29.764,36.496 30.464,37.728 30.464,39.366 L30.464,44 L28.756,44 L28.63,43.524 C28.252,43.93 27.692,44.182 26.852,44.182 C25.368,44.182 24.108,43.272 24.108,41.732 Z M26.04,41.676 C26.04,42.278 26.586,42.684 27.314,42.684 C28.042,42.684 28.574,42.292 28.574,41.676 C28.574,41.032 28.042,40.654 27.3,40.654 C26.558,40.654 26.04,41.074 26.04,41.676 Z M31.5,40.36 C31.5,38.148 32.998,36.496 35.084,36.496 C37.352,36.496 38.64,38.008 38.64,40.402 C38.64,40.542 38.64,40.682 38.626,40.822 L33.474,40.822 C33.516,41.802 34.3,42.502 35.378,42.502 C36.372,42.502 36.946,41.914 37.156,41.606 L38.43,42.572 C38.15,43.09 37.17,44.182 35.35,44.182 C32.998,44.182 31.5,42.558 31.5,40.36 Z M33.53,39.562 L36.68,39.562 C36.638,38.666 35.994,38.078 35.112,38.078 C34.202,38.078 33.614,38.722 33.53,39.562 Z M43.624,36.496 C42.658,36.496 41.93,37.014 41.608,37.742 L41.608,36.678 L39.718,36.678 L39.718,44 L41.65,44 L41.65,40.808 C41.65,39.352 42.182,38.456 43.624,38.456 L43.624,36.496 Z M47.236,44.182 C48.188,44.182 48.888,43.65 49.196,43.146 L49.196,44 L51.086,44 L51.086,36.678 L49.154,36.678 L49.154,41.074 C49.154,41.858 48.65,42.446 47.852,42.446 C47.194,42.446 46.634,41.942 46.634,41.13 L46.634,36.678 L44.702,36.678 L44.702,40.906 C44.702,42.46 45.15,44.182 47.236,44.182 Z M56.392,36.496 C55.44,36.496 54.74,37.028 54.432,37.532 L54.432,36.678 L52.542,36.678 L52.542,44 L54.474,44 L54.474,39.604 C54.474,38.82 54.978,38.232 55.776,38.232 C56.434,38.232 56.994,38.736 56.994,39.548 L56.994,44 L58.926,44 L58.926,39.772 C58.926,38.218 58.478,36.496 56.392,36.496 Z M60.914,46.016 L61.502,44.532 C61.74,44.658 62.58,45.036 63.588,45.036 C64.638,45.036 65.604,44.714 65.604,43.58 L65.604,43.244 C65.45,43.454 64.736,44.182 63.462,44.182 C61.348,44.182 59.962,42.6 59.962,40.346 C59.962,38.092 61.446,36.496 63.532,36.496 C64.764,36.496 65.506,37.168 65.716,37.448 L65.716,36.678 L67.536,36.678 L67.536,43.076 C67.536,45.806 65.758,46.688 63.602,46.688 C62.594,46.688 61.572,46.38 60.914,46.016 Z M65.66,40.332 C65.66,39.086 64.904,38.204 63.77,38.204 C62.678,38.204 61.908,39.044 61.908,40.332 C61.908,41.62 62.692,42.474 63.784,42.474 C64.904,42.474 65.66,41.634 65.66,40.332 Z M69.104,43.762 C69.104,43.986 69.272,44.182 69.524,44.182 C69.776,44.182 69.944,43.986 69.944,43.762 C69.944,43.538 69.776,43.342 69.524,43.342 C69.272,43.342 69.104,43.538 69.104,43.762 Z M77.812,44 L77.812,42.25 C77.504,43.006 76.524,44.182 74.802,44.182 C72.8,44.182 71.4,42.628 71.4,40.388 C71.4,38.148 72.8,36.594 74.802,36.594 C76.524,36.594 77.504,37.77 77.812,38.526 L77.812,33.878 L78.162,33.878 L78.162,44 L77.812,44 Z M77.826,40.388 C77.826,38.078 76.328,36.944 74.802,36.944 C73.094,36.944 71.764,38.358 71.764,40.388 C71.764,42.418 73.094,43.832 74.802,43.832 C76.328,43.832 77.826,42.698 77.826,40.388 Z M79.87,40.402 C79.87,37.966 81.536,36.594 83.328,36.594 C85.414,36.594 86.73,38.134 86.73,40.136 L86.73,40.388 L80.234,40.388 C80.234,42.586 81.606,43.832 83.524,43.832 C84.924,43.832 85.708,43.118 86.198,42.446 L86.464,42.628 C85.946,43.426 85.022,44.182 83.524,44.182 C81.326,44.182 79.87,42.684 79.87,40.402 Z M80.248,40.052 L86.366,40.052 C86.268,37.98 84.826,36.944 83.328,36.944 C81.844,36.944 80.402,38.064 80.248,40.052 Z" id="steuer-erklaerung.de" fill="#29E2C4"></path>
                            <path d="M5.136,16.312 C7.848,16.312 9.96,14.776 9.96,12.328 C9.96,7.84 4.008,8.8 4.008,6.808 C4.008,6.184 4.536,5.8 5.304,5.8 C6.48,5.8 7.176,6.52 7.56,7 L9.744,5.368 C9.144,4.384 7.824,3.136 5.448,3.136 C2.88,3.136 0.888,4.528 0.888,6.856 C0.888,11.32 6.816,10.576 6.816,12.496 C6.816,13.216 6.216,13.624 5.28,13.624 C3.864,13.624 3.024,12.976 2.4,12.256 L0.456,13.984 C1.128,15.064 2.664,16.312 5.136,16.312 Z M10.665,9.76 C10.665,5.944 13.593,3.136 17.409,3.136 C21.249,3.136 24.177,5.968 24.177,9.76 C24.177,13.552 21.345,16.312 17.409,16.312 C13.497,16.312 10.665,13.552 10.665,9.76 Z M13.977,9.76 C13.977,11.896 15.441,13.384 17.409,13.384 C19.401,13.384 20.865,11.896 20.865,9.76 C20.865,7.624 19.401,6.064 17.409,6.064 C15.417,6.064 13.977,7.6 13.977,9.76 Z M25.698,16 L29.01,16 L29.01,-1.352 L25.698,-1.352 L25.698,16 Z M43.539,-1.352 L43.539,16 L40.419,16 L40.419,14.704 C40.083,15.112 38.835,16.312 36.699,16.312 C33.099,16.312 30.555,13.6 30.555,9.736 C30.555,5.848 32.907,3.136 36.507,3.136 C38.667,3.136 39.915,4.336 40.227,4.768 L40.227,-1.352 L43.539,-1.352 Z M40.323,9.76 C40.323,7.408 38.931,6.064 37.107,6.064 C35.187,6.064 33.891,7.576 33.891,9.76 C33.891,11.992 35.235,13.384 37.107,13.384 C39.123,13.384 40.323,11.752 40.323,9.76 Z M45.036,12.112 C45.036,9.64 46.98,7.96 49.908,7.96 C51.18,7.96 52.164,8.344 52.62,8.656 L52.62,7.84 C52.62,6.736 51.804,5.992 50.34,5.992 C49.092,5.992 47.94,6.4 47.004,6.88 L45.756,4.624 C46.884,3.856 48.78,3.136 50.7,3.136 C54.732,3.136 55.932,5.248 55.932,8.056 L55.932,16 L53.004,16 L52.788,15.184 C52.14,15.88 51.18,16.312 49.74,16.312 C47.196,16.312 45.036,14.752 45.036,12.112 Z M48.348,12.016 C48.348,13.048 49.284,13.744 50.532,13.744 C51.78,13.744 52.692,13.072 52.692,12.016 C52.692,10.912 51.78,10.264 50.508,10.264 C49.236,10.264 48.348,10.984 48.348,12.016 Z M58.317,3.448 L56.973,3.448 L56.973,6.136 L58.293,6.136 L58.293,11.08 C58.293,14.488 59.613,16.168 62.613,16.168 C63.525,16.168 64.029,16.048 64.029,16.048 L64.029,13.216 C63.765,13.24 63.645,13.24 63.429,13.24 C62.157,13.24 61.581,12.856 61.581,10.984 L61.581,6.136 L63.933,6.136 L63.933,3.448 L61.581,3.448 L61.581,0.808 L58.317,0.808 L58.317,3.448 Z M64.95,9.76 C64.95,5.968 67.518,3.136 71.094,3.136 C74.982,3.136 77.19,5.728 77.19,9.832 C77.19,10.072 77.19,10.312 77.166,10.552 L68.334,10.552 C68.406,12.232 69.75,13.432 71.598,13.432 C73.302,13.432 74.286,12.424 74.646,11.896 L76.83,13.552 C76.35,14.44 74.67,16.312 71.55,16.312 C67.518,16.312 64.95,13.528 64.95,9.76 Z M68.43,8.392 L73.83,8.392 C73.758,6.856 72.654,5.848 71.142,5.848 C69.582,5.848 68.574,6.952 68.43,8.392 Z M85.263,3.136 C83.631,3.136 82.431,4.048 81.903,4.912 L81.903,3.448 L78.663,3.448 L78.663,16 L81.975,16 L81.975,8.464 C81.975,7.12 82.839,6.112 84.207,6.112 C85.335,6.112 86.295,6.976 86.295,8.368 L86.295,16 L89.607,16 L89.607,8.752 C89.607,6.088 88.839,3.136 85.263,3.136 Z" id="soldaten" fill="#0B4F6C"></path>
                        </g>
                    </g>
                </g>
            </g>
        </g>
    </g>
</svg>