<?xml version="1.0" encoding="UTF-8"?>
<svg width="198px" height="73px" viewBox="0 0 198 73" version="1.1" xmlns="http://www.w3.org/2000/svg" xmlns:xlink="http://www.w3.org/1999/xlink">
    <!-- Generator: Sketch 45.1 (43504) - http://www.bohemiancoding.com/sketch -->
    <title>Logo Soldiers</title>
    <desc>Created with Sketch.</desc>
    <defs></defs>
    <g id="Page-2" stroke="none" stroke-width="1" fill="none" fill-rule="evenodd">
        <g id="wtx-home-page" transform="translate(-1000.000000, -1712.000000)">
            <g id="Section-02" transform="translate(0.000000, 730.000000)">
                <g id="Content-Section-2" transform="translate(164.000000, 160.000000)">
                    <g id="Tools" transform="translate(0.000000, 790.000000)">
                        <g id="Tool-Soldiers" transform="translate(760.000000, 0.000000)">
                            <g id="Logo-Soldiers" transform="translate(76.000000, 32.000000)">
                                <path d="M3.9,50.92 C6.16,50.92 7.92,49.64 7.92,47.6 C7.92,43.86 2.96,44.66 2.96,43 C2.96,42.48 3.4,42.16 4.04,42.16 C5.02,42.16 5.6,42.76 5.92,43.16 L7.74,41.8 C7.24,40.98 6.14,39.94 4.16,39.94 C2.02,39.94 0.36,41.1 0.36,43.04 C0.36,46.76 5.3,46.14 5.3,47.74 C5.3,48.34 4.8,48.68 4.02,48.68 C2.84,48.68 2.14,48.14 1.62,47.54 L0,48.98 C0.56,49.88 1.84,50.92 3.9,50.92 Z M9.66,40.2 L8.54,40.2 L8.54,42.44 L9.64,42.44 L9.64,46.56 C9.64,49.4 10.74,50.8 13.24,50.8 C14,50.8 14.42,50.7 14.42,50.7 L14.42,48.34 C14.2,48.36 14.1,48.36 13.92,48.36 C12.86,48.36 12.38,48.04 12.38,46.48 L12.38,42.44 L14.34,42.44 L14.34,40.2 L12.38,40.2 L12.38,38 L9.66,38 L9.66,40.2 Z M15.5,45.46 C15.5,42.3 17.64,39.94 20.62,39.94 C23.86,39.94 25.7,42.1 25.7,45.52 C25.7,45.72 25.7,45.92 25.68,46.12 L18.32,46.12 C18.38,47.52 19.5,48.52 21.04,48.52 C22.46,48.52 23.28,47.68 23.58,47.24 L25.4,48.62 C25,49.36 23.6,50.92 21,50.92 C17.64,50.92 15.5,48.6 15.5,45.46 Z M18.4,44.32 L22.9,44.32 C22.84,43.04 21.92,42.2 20.66,42.2 C19.36,42.2 18.52,43.12 18.4,44.32 Z M30.78,50.92 C32.14,50.92 33.14,50.16 33.58,49.44 L33.58,50.66 L36.28,50.66 L36.28,40.2 L33.52,40.2 L33.52,46.48 C33.52,47.6 32.8,48.44 31.66,48.44 C30.72,48.44 29.92,47.72 29.92,46.56 L29.92,40.2 L27.16,40.2 L27.16,46.24 C27.16,48.46 27.8,50.92 30.78,50.92 Z M37.8,45.46 C37.8,42.3 39.94,39.94 42.92,39.94 C46.16,39.94 48,42.1 48,45.52 C48,45.72 48,45.92 47.98,46.12 L40.62,46.12 C40.68,47.52 41.8,48.52 43.34,48.52 C44.76,48.52 45.58,47.68 45.88,47.24 L47.7,48.62 C47.3,49.36 45.9,50.92 43.3,50.92 C39.94,50.92 37.8,48.6 37.8,45.46 Z M40.7,44.32 L45.2,44.32 C45.14,43.04 44.22,42.2 42.96,42.2 C41.66,42.2 40.82,43.12 40.7,44.32 Z M55.12,39.94 C53.74,39.94 52.7,40.68 52.24,41.72 L52.24,40.2 L49.54,40.2 L49.54,50.66 L52.3,50.66 L52.3,46.1 C52.3,44.02 53.06,42.74 55.12,42.74 L55.12,39.94 Z M0.14,63.46 C0.14,60.3 2.28,57.94 5.26,57.94 C8.5,57.94 10.34,60.1 10.34,63.52 C10.34,63.72 10.34,63.92 10.32,64.12 L2.96,64.12 C3.02,65.52 4.14,66.52 5.68,66.52 C7.1,66.52 7.92,65.68 8.22,65.24 L10.04,66.62 C9.64,67.36 8.24,68.92 5.64,68.92 C2.28,68.92 0.14,66.6 0.14,63.46 Z M3.04,62.32 L7.54,62.32 C7.48,61.04 6.56,60.2 5.3,60.2 C4,60.2 3.16,61.12 3.04,62.32 Z M17.46,57.94 C16.08,57.94 15.04,58.68 14.58,59.72 L14.58,58.2 L11.88,58.2 L11.88,68.66 L14.64,68.66 L14.64,64.1 C14.64,62.02 15.4,60.74 17.46,60.74 L17.46,57.94 Z M19.08,68.66 L21.84,68.66 L21.84,63.26 L25.34,68.66 L28.58,68.66 L24.62,62.94 L28.3,58.2 L25.2,58.2 L21.84,62.6 L21.84,54.2 L19.08,54.2 L19.08,68.66 Z M29.72,68.66 L32.48,68.66 L32.48,54.2 L29.72,54.2 L29.72,68.66 Z M34.06,65.42 C34.06,63.36 35.68,61.96 38.12,61.96 C39.18,61.96 40,62.28 40.38,62.54 L40.38,61.86 C40.38,60.94 39.7,60.32 38.48,60.32 C37.44,60.32 36.48,60.66 35.7,61.06 L34.66,59.18 C35.6,58.54 37.18,57.94 38.78,57.94 C42.14,57.94 43.14,59.7 43.14,62.04 L43.14,68.66 L40.7,68.66 L40.52,67.98 C39.98,68.56 39.18,68.92 37.98,68.92 C35.86,68.92 34.06,67.62 34.06,65.42 Z M36.82,65.34 C36.82,66.2 37.6,66.78 38.64,66.78 C39.68,66.78 40.44,66.22 40.44,65.34 C40.44,64.42 39.68,63.88 38.62,63.88 C37.56,63.88 36.82,64.48 36.82,65.34 Z M44.62,63.46 C44.62,60.3 46.76,57.94 49.74,57.94 C52.98,57.94 54.82,60.1 54.82,63.52 C54.82,63.72 54.82,63.92 54.8,64.12 L47.44,64.12 C47.5,65.52 48.62,66.52 50.16,66.52 C51.58,66.52 52.4,65.68 52.7,65.24 L54.52,66.62 C54.12,67.36 52.72,68.92 50.12,68.92 C46.76,68.92 44.62,66.6 44.62,63.46 Z M47.52,62.32 L52.02,62.32 C51.96,61.04 51.04,60.2 49.78,60.2 C48.48,60.2 47.64,61.12 47.52,62.32 Z M61.94,57.94 C60.56,57.94 59.52,58.68 59.06,59.72 L59.06,58.2 L56.36,58.2 L56.36,68.66 L59.12,68.66 L59.12,64.1 C59.12,62.02 59.88,60.74 61.94,60.74 L61.94,57.94 Z M67.1,68.92 C68.46,68.92 69.46,68.16 69.9,67.44 L69.9,68.66 L72.6,68.66 L72.6,58.2 L69.84,58.2 L69.84,64.48 C69.84,65.6 69.12,66.44 67.98,66.44 C67.04,66.44 66.24,65.72 66.24,64.56 L66.24,58.2 L63.48,58.2 L63.48,64.24 C63.48,66.46 64.12,68.92 67.1,68.92 Z M80.18,57.94 C78.82,57.94 77.82,58.7 77.38,59.42 L77.38,58.2 L74.68,58.2 L74.68,68.66 L77.44,68.66 L77.44,62.38 C77.44,61.26 78.16,60.42 79.3,60.42 C80.24,60.42 81.04,61.14 81.04,62.3 L81.04,68.66 L83.8,68.66 L83.8,62.62 C83.8,60.4 83.16,57.94 80.18,57.94 Z M86.64,71.54 L87.48,69.42 C87.82,69.6 89.02,70.14 90.46,70.14 C91.96,70.14 93.34,69.68 93.34,68.06 L93.34,67.58 C93.12,67.88 92.1,68.92 90.28,68.92 C87.26,68.92 85.28,66.66 85.28,63.44 C85.28,60.22 87.4,57.94 90.38,57.94 C92.14,57.94 93.2,58.9 93.5,59.3 L93.5,58.2 L96.1,58.2 L96.1,67.34 C96.1,71.24 93.56,72.5 90.48,72.5 C89.04,72.5 87.58,72.06 86.64,71.54 Z M93.42,63.42 C93.42,61.64 92.34,60.38 90.72,60.38 C89.16,60.38 88.06,61.58 88.06,63.42 C88.06,65.26 89.18,66.48 90.74,66.48 C92.34,66.48 93.42,65.28 93.42,63.42 Z M98.34,68.32 C98.34,68.64 98.58,68.92 98.94,68.92 C99.3,68.92 99.54,68.64 99.54,68.32 C99.54,68 99.3,67.72 98.94,67.72 C98.58,67.72 98.34,68 98.34,68.32 Z M110.78,68.66 L110.78,66.16 C110.34,67.24 108.94,68.92 106.48,68.92 C103.62,68.92 101.62,66.7 101.62,63.5 C101.62,60.3 103.62,58.08 106.48,58.08 C108.94,58.08 110.34,59.76 110.78,60.84 L110.78,54.2 L111.28,54.2 L111.28,68.66 L110.78,68.66 Z M110.8,63.5 C110.8,60.2 108.66,58.58 106.48,58.58 C104.04,58.58 102.14,60.6 102.14,63.5 C102.14,66.4 104.04,68.42 106.48,68.42 C108.66,68.42 110.8,66.8 110.8,63.5 Z M113.72,63.52 C113.72,60.04 116.1,58.08 118.66,58.08 C121.64,58.08 123.52,60.28 123.52,63.14 L123.52,63.5 L114.24,63.5 C114.24,66.64 116.2,68.42 118.94,68.42 C120.94,68.42 122.06,67.4 122.76,66.44 L123.14,66.7 C122.4,67.84 121.08,68.92 118.94,68.92 C115.8,68.92 113.72,66.78 113.72,63.52 Z M114.26,63.02 L123,63.02 C122.86,60.06 120.8,58.58 118.66,58.58 C116.54,58.58 114.48,60.18 114.26,63.02 Z" id="steuer-erklaerung.de" fill="#29E2C4"></path>
                                <path d="M1.944,27 L1.944,0.972 L6.912,0.972 L6.912,10.152 C7.38,9.504 9.252,7.704 12.492,7.704 C17.892,7.704 21.42,11.772 21.42,17.604 C21.42,23.4 17.604,27.468 12.204,27.468 C9,27.468 7.128,25.668 6.624,25.056 L6.624,27 L1.944,27 Z M6.768,17.64 C6.768,20.628 8.568,23.076 11.592,23.076 C14.4,23.076 16.416,20.988 16.416,17.64 C16.416,14.364 14.472,12.096 11.592,12.096 C8.856,12.096 6.768,14.112 6.768,17.64 Z M30.0735,27.468 C32.5215,27.468 34.3215,26.1 35.1135,24.804 L35.1135,27 L39.9735,27 L39.9735,8.172 L35.0055,8.172 L35.0055,19.476 C35.0055,21.492 33.7095,23.004 31.6575,23.004 C29.9655,23.004 28.5255,21.708 28.5255,19.62 L28.5255,8.172 L23.5575,8.172 L23.5575,19.044 C23.5575,23.04 24.7095,27.468 30.0735,27.468 Z M53.055,7.704 C50.607,7.704 48.807,9.072 48.015,10.368 L48.015,8.172 L43.155,8.172 L43.155,27 L48.123,27 L48.123,15.696 C48.123,13.68 49.419,12.168 51.471,12.168 C53.163,12.168 54.603,13.464 54.603,15.552 L54.603,27 L59.571,27 L59.571,16.128 C59.571,12.132 58.419,7.704 53.055,7.704 Z M81.1845,0.972 L81.1845,27 L76.5045,27 L76.5045,25.056 C76.0005,25.668 74.1285,27.468 70.9245,27.468 C65.5245,27.468 61.7085,23.4 61.7085,17.604 C61.7085,11.772 65.2365,7.704 70.6365,7.704 C73.8765,7.704 75.7485,9.504 76.2165,10.152 L76.2165,0.972 L81.1845,0.972 Z M76.3605,17.64 C76.3605,14.112 74.2725,12.096 71.5365,12.096 C68.6565,12.096 66.7125,14.364 66.7125,17.64 C66.7125,20.988 68.7285,23.076 71.5365,23.076 C74.5605,23.076 76.3605,20.628 76.3605,17.64 Z M83.502,17.64 C83.502,11.952 87.354,7.704 92.718,7.704 C98.55,7.704 101.862,11.592 101.862,17.748 C101.862,18.108 101.862,18.468 101.826,18.828 L88.578,18.828 C88.686,21.348 90.702,23.148 93.474,23.148 C96.03,23.148 97.506,21.636 98.046,20.844 L101.322,23.328 C100.602,24.66 98.082,27.468 93.402,27.468 C87.354,27.468 83.502,23.292 83.502,17.64 Z M88.722,15.588 L96.822,15.588 C96.714,13.284 95.058,11.772 92.79,11.772 C90.45,11.772 88.938,13.428 88.722,15.588 Z M109.8315,27.468 C113.8995,27.468 117.0675,25.164 117.0675,21.492 C117.0675,14.76 108.1395,16.2 108.1395,13.212 C108.1395,12.276 108.9315,11.7 110.0835,11.7 C111.8475,11.7 112.8915,12.78 113.4675,13.5 L116.7435,11.052 C115.8435,9.576 113.8635,7.704 110.2995,7.704 C106.4475,7.704 103.4595,9.792 103.4595,13.284 C103.4595,19.98 112.3515,18.864 112.3515,21.744 C112.3515,22.824 111.4515,23.436 110.0475,23.436 C107.9235,23.436 106.6635,22.464 105.7275,21.384 L102.8115,23.976 C103.8195,25.596 106.1235,27.468 109.8315,27.468 Z M135.585,27 L141.129,27 L146.781,8.172 L141.381,8.172 L138.033,21.528 L134.469,8.172 L129.789,8.172 L126.189,21.528 L122.877,8.172 L117.477,8.172 L123.093,27 L128.637,27 L132.129,14.94 L135.585,27 Z M147.4065,17.64 C147.4065,11.952 151.2585,7.704 156.6225,7.704 C162.4545,7.704 165.7665,11.592 165.7665,17.748 C165.7665,18.108 165.7665,18.468 165.7305,18.828 L152.4825,18.828 C152.5905,21.348 154.6065,23.148 157.3785,23.148 C159.9345,23.148 161.4105,21.636 161.9505,20.844 L165.2265,23.328 C164.5065,24.66 161.9865,27.468 157.3065,27.468 C151.2585,27.468 147.4065,23.292 147.4065,17.64 Z M152.6265,15.588 L160.7265,15.588 C160.6185,13.284 158.9625,11.772 156.6945,11.772 C154.3545,11.772 152.8425,13.428 152.6265,15.588 Z M177.912,7.704 C175.464,7.704 173.736,9.072 172.944,10.368 L172.944,0.972 L167.976,0.972 L167.976,27 L172.944,27 L172.944,15.696 C172.944,13.68 174.276,12.168 176.364,12.168 C178.056,12.168 179.496,13.464 179.496,15.552 L179.496,27 L184.428,27 L184.428,16.128 C184.428,12.132 183.312,7.704 177.912,7.704 Z M197.6895,7.704 C195.2055,7.704 193.3335,9.036 192.5055,10.908 L192.5055,8.172 L187.6455,8.172 L187.6455,27 L192.6135,27 L192.6135,18.792 C192.6135,15.048 193.9815,12.744 197.6895,12.744 L197.6895,7.704 Z" id="bundeswehr" fill="#0B4F6C"></path>
                            </g>
                        </g>
                    </g>
                </g>
            </g>
        </g>
    </g>
</svg>